<?xml version="1.0" encoding="UTF-8" standalone="no"?>
<svg
   id="weather-icon-chancetstorms"
   class="weather-icon weather-icon-black chancetstorms"
   viewBox="0 0 64 64"
   version="1.1"
   sodipodi:docname="Fog.svg"
   xml:space="preserve"
   inkscape:version="1.2.1 (9c6d41e410, 2022-07-14)"
   xmlns:inkscape="http://www.inkscape.org/namespaces/inkscape"
   xmlns:sodipodi="http://sodipodi.sourceforge.net/DTD/sodipodi-0.dtd"
   xmlns="http://www.w3.org/2000/svg"
   xmlns:svg="http://www.w3.org/2000/svg"><defs
     id="defs33"><radialGradient
       id="15__15__paint1_radial_149_1407"
       cx="0"
       cy="0"
       r="1"
       gradientTransform="matrix(6,22.50004,-32.59285,8.69142,68,41)"
       gradientUnits="userSpaceOnUse"><stop
         stop-color="#D5D5D5"
         id="stop701" /><stop
         offset="1"
         stop-color="#D0D0D0"
         id="stop703" /><stop
         offset="1"
         stop-color="#9B9B9B"
         stop-opacity="0"
         id="stop705" /></radialGradient><linearGradient
       id="15__15__paint0_linear_149_1407"
       x1="47.5"
       x2="49.5"
       y1="38.5"
       y2="71.1"
       gradientUnits="userSpaceOnUse"><stop
         offset=".484"
         stop-color="#fff"
         stop-opacity="0"
         id="stop708" /><stop
         offset="1"
         stop-color="#B3B2B2"
         id="stop710" /></linearGradient><filter
       id="15__15__filter0_f_149_1407"
       width="79"
       height="40.101"
       x="14.5"
       y="33"
       color-interpolation-filters="sRGB"
       filterUnits="userSpaceOnUse"><feFlood
         flood-opacity="0"
         result="BackgroundImageFix"
         id="feFlood713" /><feBlend
         in="SourceGraphic"
         in2="BackgroundImageFix"
         result="shape"
         id="feBlend715" /><feGaussianBlur
         result="effect1_foregroundBlur_149_1407"
         stdDeviation="2"
         id="feGaussianBlur717" /></filter></defs><sodipodi:namedview
     id="namedview31"
     pagecolor="#ffffff"
     bordercolor="#000000"
     borderopacity="0.25"
     inkscape:showpageshadow="2"
     inkscape:pageopacity="0.0"
     inkscape:pagecheckerboard="0"
     inkscape:deskcolor="#d1d1d1"
     showgrid="false"
     inkscape:zoom="16.046875"
     inkscape:cx="31.968841"
     inkscape:cy="31.968841"
     inkscape:window-width="2560"
     inkscape:window-height="1369"
     inkscape:window-x="-8"
     inkscape:window-y="-8"
     inkscape:window-maximized="1"
     inkscape:current-layer="weather-icon-chancetstorms" /><style
     id="style24">.st0{fill:#F4A71D;}</style><style
     id="style95">.st0{fill:#72B8D4;}</style><style
     id="style430">.st0{fill:#72B8D4;}</style><style
     id="style549">.st0{fill:#72B8D4;}</style><path
     d="M 48.531887,41.778433 H 15.631889 c -5.6,0 -10.1999998,-4.6 -10.1999998,-10.2 0,-4.4 2.9,-8.3 6.9999998,-9.7 v -0.3 c 0,-5.1 4.2,-9.300001 9.3,-9.300001 1.3,0 2.5,0.3 3.7,0.8 2.5,-3.6999998 6.6,-5.9999998 11.2,-5.9999998 7.399998,0 13.399998,5.9999998 13.399998,13.4000008 0,0.8 -0.1,1.6 -0.2,2.4 4.7,0.6 8.3,4.6 8.3,9.4 -0.1,5.2 -4.4,9.5 -9.6,9.5 z M 21.731889,14.978432 c -3.6,0 -6.6,3.000001 -6.6,6.600001 0,0.3 0,0.7 0.1,1.1 l 0.2,1.3 -1.3,0.2 c -3.5,0.7 -6.0999998,3.8 -6.0999998,7.4 0,4.2 3.3999998,7.5 7.4999998,7.5 h 32.899998 c 3.8,0 6.8,-3.1 6.8,-6.8 0,-3.8 -3.1,-6.8 -6.8,-6.8 h -0.3 l -2,0.1 0.6,-1.9 c 0.3,-1.1 0.5,-2.2 0.5,-3.3 0,-5.900001 -4.8,-10.7000008 -10.699998,-10.7000008 -4,0 -7.6,2.1999998 -9.5,5.6999998 l -0.7,1.300001 -1.2,-0.7 c -1,-0.700001 -2.2,-1.000001 -3.4,-1.000001 z"
     id="path670" /><g
     style="fill:none"
     id="g742"
     transform="translate(-39.45886,-19.179163)"><g
       style="mix-blend-mode:multiply"
       filter="url(#15__15__filter0_f_149_1407)"
       opacity="0.3"
       id="g697" /><path
       fill="#acacac"
       d="M 91.085581,65.300005 H 56.919374 c -0.321456,0 -0.596989,-0.353318 -0.596989,-0.757111 0,-0.403792 0.275533,-0.75711 0.596989,-0.75711 h 34.166207 c 0.321456,0 0.59699,0.353318 0.59699,0.75711 0,0.403793 -0.275534,0.757111 -0.59699,0.757111 z m -0.918447,8.075847 H 56.000928 c -0.321456,0 -0.596989,-0.353318 -0.596989,-0.757111 0,-0.403792 0.275533,-0.75711 0.596989,-0.75711 h 34.166206 c 0.321456,0 0.596991,0.353318 0.596991,0.75711 0,0.403793 -0.275535,0.757111 -0.596991,0.757111 z M 85.115679,69.337929 H 50.949473 c -0.321457,0 -0.59699,-0.353319 -0.59699,-0.757111 0,-0.403792 0.275533,-0.757111 0.59699,-0.757111 h 34.166206 c 0.321455,0 0.59699,0.353319 0.59699,0.757111 0,0.403792 -0.275535,0.757111 -0.59699,0.757111 z"
       id="path699"
       style="fill:#241c1c;stroke-width:0.481445" /></g></svg>
