<?xml version="1.0" encoding="UTF-8" standalone="no"?>
<svg
   id="weather-icon-chancetstorms"
   class="weather-icon weather-icon-black chancetstorms"
   viewBox="0 0 64 64"
   version="1.1"
   sodipodi:docname="Heavy rainshowers.svg"
   xml:space="preserve"
   inkscape:version="1.2.1 (9c6d41e410, 2022-07-14)"
   xmlns:inkscape="http://www.inkscape.org/namespaces/inkscape"
   xmlns:sodipodi="http://sodipodi.sourceforge.net/DTD/sodipodi-0.dtd"
   xmlns="http://www.w3.org/2000/svg"
   xmlns:svg="http://www.w3.org/2000/svg"><defs
     id="defs33"><inkscape:perspective
       sodipodi:type="inkscape:persp3d"
       inkscape:vp_x="0 : 32 : 1"
       inkscape:vp_y="0 : 1000 : 0"
       inkscape:vp_z="64 : 32 : 1"
       inkscape:persp3d-origin="32 : 21.333333 : 1"
       id="perspective2399" /><radialGradient
       id="15__15__paint1_radial_149_1407"
       cx="0"
       cy="0"
       r="1"
       gradientTransform="matrix(6,22.50004,-32.59285,8.69142,68,41)"
       gradientUnits="userSpaceOnUse"><stop
         stop-color="#D5D5D5"
         id="stop701" /><stop
         offset="1"
         stop-color="#D0D0D0"
         id="stop703" /><stop
         offset="1"
         stop-color="#9B9B9B"
         stop-opacity="0"
         id="stop705" /></radialGradient><linearGradient
       id="15__15__paint0_linear_149_1407"
       x1="47.5"
       x2="49.5"
       y1="38.5"
       y2="71.1"
       gradientUnits="userSpaceOnUse"><stop
         offset=".484"
         stop-color="#fff"
         stop-opacity="0"
         id="stop708" /><stop
         offset="1"
         stop-color="#B3B2B2"
         id="stop710" /></linearGradient><filter
       id="15__15__filter0_f_149_1407"
       width="79"
       height="40.101"
       x="14.5"
       y="33"
       color-interpolation-filters="sRGB"
       filterUnits="userSpaceOnUse"><feFlood
         flood-opacity="0"
         result="BackgroundImageFix"
         id="feFlood713" /><feBlend
         in="SourceGraphic"
         in2="BackgroundImageFix"
         result="shape"
         id="feBlend715" /><feGaussianBlur
         result="effect1_foregroundBlur_149_1407"
         stdDeviation="2"
         id="feGaussianBlur717" /></filter></defs><sodipodi:namedview
     id="namedview31"
     pagecolor="#ffffff"
     bordercolor="#000000"
     borderopacity="0.25"
     inkscape:showpageshadow="2"
     inkscape:pageopacity="0.0"
     inkscape:pagecheckerboard="0"
     inkscape:deskcolor="#d1d1d1"
     showgrid="false"
     inkscape:zoom="16.046875"
     inkscape:cx="22.029211"
     inkscape:cy="31.968841"
     inkscape:window-width="2560"
     inkscape:window-height="1369"
     inkscape:window-x="-8"
     inkscape:window-y="-8"
     inkscape:window-maximized="1"
     inkscape:current-layer="weather-icon-chancetstorms" /><style
     id="style24">.st0{fill:#F4A71D;}</style><style
     id="style95">.st0{fill:#72B8D4;}</style><style
     id="style430">.st0{fill:#72B8D4;}</style><style
     id="style549">.st0{fill:#72B8D4;}</style><style
     id="style766">.st0{fill:#72B8D4;}</style><style
     id="style782">.st0{fill:#F4A71D;}</style><style
     id="style2780">.st0{fill:#F4A71D;}</style><g
     id="g2797"
     transform="translate(3.0770498,-6.9136323)"
     style="fill:#ffae00;fill-opacity:1"><path
       class="st0"
       d="m 43.1,13.9 c -0.7,0 -1.2,-0.6 -1.2,-1.2 V 9.2 c 0,-0.7 0.6,-1.2 1.2,-1.2 0.7,0 1.2,0.6 1.2,1.2 v 3.4 c 0,0.7 -0.5,1.3 -1.2,1.3 z M 57.6,25 H 54.2 C 53.5,25 53,24.5 53,23.8 c 0,-0.7 0.5,-1.2 1.2,-1.2 h 3.4 c 0.7,0 1.2,0.5 1.2,1.2 0.1,0.7 -0.5,1.2 -1.2,1.2 z m -6.3,-7.9 c -0.3,0 -0.6,-0.1 -0.9,-0.4 -0.5,-0.5 -0.5,-1.3 0,-1.7 l 2.4,-2.4 c 0.5,-0.5 1.3,-0.5 1.7,0 0.5,0.5 0.5,1.3 0,1.7 l -2.4,2.4 C 52,17 51.6,17.1 51.3,17.1 Z m 2.4,18.3 c -0.3,0 -0.6,-0.1 -0.9,-0.4 l -2.4,-2.4 c -0.5,-0.5 -0.5,-1.3 0,-1.7 0.5,-0.5 1.3,-0.5 1.7,0 l 2.4,2.4 c 0.5,0.5 0.5,1.3 0,1.7 -0.1,0.3 -0.5,0.4 -0.8,0.4 z M 35.3,17.2 c -0.3,0 -0.6,-0.1 -0.9,-0.4 L 32,14.5 c -0.5,-0.5 -0.5,-1.3 0,-1.7 0.5,-0.5 1.3,-0.5 1.7,0 l 2.4,2.4 c 0.5,0.5 0.5,1.3 0,1.7 -0.2,0.2 -0.5,0.3 -0.8,0.3 z"
       id="path2782"
       style="fill:#ffae00;fill-opacity:1" /><path
       class="st0"
       d="m 44.6,16 c -4.2,-0.8 -8.2,2 -8.9,6.2 -0.1,0.4 -0.1,0.7 -0.1,1.1 -0.1,0.5 0.3,1 0.9,1.1 1.1,0.1 1,-1 1.2,-1.7 0.6,-3.1 3.5,-5.1 6.6,-4.6 3.1,0.6 5.1,3.5 4.6,6.6 -0.1,0.7 -0.3,1.4 -0.7,2 -0.5,0.7 -1.3,1.3 -2,1.8 -0.6,0.4 -0.3,1.3 0.4,1.4 0.8,0.2 1.5,-0.4 2.1,-1 0.7,-0.6 1.3,-1.5 1.7,-2.4 0.2,-0.5 0.4,-1 0.5,-1.5 0.7,-4.3 -2.1,-8.3 -6.3,-9 z"
       id="path2786"
       style="fill:#ffae00;fill-opacity:1" /></g><style
     id="style3525">.st0{fill:#2885C7;}</style><g
     id="g3539"
     transform="matrix(0.96105161,0,0,0.95166153,2.5625118,10.253158)"><path
       d="m 50.9,24.1 c 0.1,-0.8 0.2,-1.6 0.2,-2.4 0,-7.4 -6,-13.4 -13.4,-13.4 -4.5,0 -8.7,2.3 -11.2,6 -1.2,-0.5 -2.4,-0.8 -3.7,-0.8 -5.1,0 -9.3,4.1 -9.3,9.3 v 0.3 c -4.1,1.4 -7,5.2 -7,9.7 0,5.6 4.6,10.2 10.2,10.2 h 5 c 1.6,0 1.5,-2.7 0,-2.7 h -5 c -4.2,0 -7.5,-3.4 -7.5,-7.5 0,-3.6 2.5,-6.7 6.1,-7.4 l 1.3,-0.3 -0.2,-1.3 c -0.1,-0.4 -0.1,-0.7 -0.1,-1.1 0,-3.6 3,-6.6 6.6,-6.6 1.2,0 2.4,0.3 3.5,1 l 1.2,0.7 0.7,-1.3 c 1.9,-3.5 5.5,-5.7 9.5,-5.7 5.9,0 10.7,4.8 10.7,10.7 0,1.1 -0.2,2.2 -0.5,3.3 l -0.6,1.9 2.1,-0.1 h 0.3 c 3.8,0 6.8,3.1 6.8,6.8 0,3.8 -3.1,6.8 -6.8,6.8 h -5.7 c -1.7,0 -2,2.7 0,2.7 h 5.7 c 5.2,0 9.5,-4.3 9.5,-9.5 -0.1,-4.7 -3.8,-8.7 -8.4,-9.3 z"
       id="path3527" /><path
       class="st0"
       d="m 24.9,46.5 c -0.3,0 -0.5,-0.1 -0.8,-0.2 C 23.5,45.9 23.4,45 23.8,44.5 L 26.2,41 c 0.4,-0.6 1.2,-0.7 1.8,-0.3 0.6,0.4 0.7,1.2 0.3,1.8 L 25.9,46 c -0.2,0.3 -0.6,0.5 -1,0.5 z m 5.8,0 c -0.3,0 -0.5,-0.1 -0.8,-0.2 C 29.3,45.9 29.2,45 29.6,44.5 L 32,41 c 0.4,-0.6 1.3,-0.7 1.8,-0.3 0.6,0.4 0.7,1.2 0.3,1.8 L 31.7,46 c -0.2,0.3 -0.6,0.5 -1,0.5 z m 5.8,0 C 36.2,46.5 36,46.4 35.7,46.3 35.1,45.9 35,45 35.4,44.5 L 37.8,41 c 0.4,-0.6 1.3,-0.7 1.8,-0.3 0.6,0.4 0.7,1.2 0.3,1.8 L 37.5,46 c -0.1,0.3 -0.5,0.5 -1,0.5 z M 18.6,56 C 18.3,56 18.1,55.9 17.8,55.8 17.2,55.4 17.1,54.6 17.5,54 l 2.4,-3.5 c 0.4,-0.6 1.3,-0.7 1.9,-0.3 0.6,0.4 0.7,1.2 0.3,1.8 l -2.4,3.5 C 19.4,55.8 19,56 18.6,56 Z m 5.9,0 C 24.2,56 24,55.9 23.7,55.8 23.1,55.4 23,54.6 23.4,54 l 2.4,-3.5 c 0.4,-0.6 1.2,-0.7 1.8,-0.3 0.6,0.4 0.7,1.2 0.3,1.8 l -2.4,3.5 c -0.2,0.3 -0.6,0.5 -1,0.5 z m 5.8,0 C 30,56 29.8,55.9 29.5,55.8 28.9,55.4 28.8,54.6 29.2,54 l 2.4,-3.5 c 0.4,-0.6 1.2,-0.7 1.8,-0.3 0.6,0.4 0.7,1.2 0.3,1.8 l -2.4,3.5 c -0.2,0.3 -0.6,0.5 -1,0.5 z"
       id="path3529" /></g></svg>
