<svg version="1.0" xmlns="http://www.w3.org/2000/svg"
viewBox="0 0 2000.000000 373.000000" preserveAspectRatio="xMidYMid meet">
  <g transform="translate(0.000000,373.000000) scale(0.100000,-0.100000)" fill="#000000" stroke="none">
    <path d="M694 3717 c-3 -8 -4 -54 -2 -103 2 -71 6 -89 18 -89 12 0 16 19 18
    103 2 87 0 102 -13 102 -9 0 -18 -6 -21 -13z"/>
    <path d="M1071 3505 c-56 -67 -68 -95 -41 -95 14 0 131 141 127 153 -8 26 -28
    13 -86 -58z"/>
    <path d="M255 3560 c-3 -6 2 -20 12 -33 61 -77 108 -127 118 -127 32 0 19 33
    -38 99 -59 69 -79 82 -92 61z"/>
    <path d="M629 3367 c-136 -39 -228 -148 -245 -289 -5 -43 -1 -73 15 -129 19
    -61 31 -81 79 -129 77 -77 147 -104 252 -98 118 7 222 75 278 183 23 44 27 62
    27 145 0 110 -21 166 -88 233 -77 77 -214 113 -318 84z m168 -42 c61 -18 144
    -88 176 -149 32 -61 31 -193 -1 -256 -32 -60 -73 -102 -130 -131 -39 -20 -62
    -24 -132 -24 -101 0 -143 18 -209 90 -72 79 -96 170 -67 267 28 99 93 166 191
    200 62 22 107 22 172 3z"/>
    <path d="M1250 3166 c-48 -8 -66 -16 -68 -29 -4 -21 32 -22 131 -3 72 14 83
    19 72 35 -8 13 -48 12 -135 -3z"/>
    <path d="M35 3160 c-3 -5 -4 -14 -1 -19 7 -10 194 -36 203 -28 18 19 -12 35
    -89 45 -101 15 -105 15 -113 2z"/>
    <path d="M1130 2803 c0 -12 27 -32 79 -60 87 -48 101 -51 101 -25 0 11 -27 31
    -79 60 -87 47 -101 50 -101 25z"/>
    <path d="M198 2764 c-70 -41 -99 -74 -65 -74 18 0 170 93 175 108 7 24 -34 11
    -110 -34z"/>
    <path d="M1935 2784 c-62 -13 -116 -30 -162 -50 -44 -19 -54 -20 -64 -8 -25
    30 -73 0 -64 -39 4 -17 -3 -28 -30 -47 -94 -66 -202 -235 -242 -380 -27 -101
    -25 -329 5 -435 36 -123 98 -241 162 -306 30 -31 61 -58 68 -60 9 -3 19 -160
    40 -675 31 -738 27 -707 95 -758 28 -21 38 -21 500 -23 345 -2 467 0 453 8
    -24 15 -52 81 -121 289 -49 148 -193 480 -209 480 -2 0 -32 -51 -67 -113 -34
    -61 -86 -148 -115 -192 -79 -120 -329 -421 -356 -428 -37 -10 -73 14 -76 50
    -4 39 -3 41 125 237 118 180 150 241 252 477 l71 166 -14 54 c-7 30 -19 87
    -26 127 l-12 72 -47 0 c-35 0 -53 5 -66 20 -18 20 -18 28 -1 258 l17 237 41
    38 c22 20 44 37 48 37 4 0 53 -74 109 -165 57 -91 108 -165 114 -165 7 0 34 7
    61 15 102 31 166 13 166 -46 0 -39 -25 -65 -85 -89 -55 -22 -55 -23 -49 -59
    36 -209 62 -310 135 -521 89 -260 191 -638 192 -714 1 -37 -4 -52 -18 -62 -16
    -12 30 -14 325 -14 l343 0 42 25 c45 26 75 74 75 119 0 14 -173 459 -385 989
    l-385 962 20 40 c39 77 20 161 -66 291 -115 175 -309 304 -524 349 -65 14
    -226 19 -275 9z m300 -98 c193 -53 404 -220 480 -383 58 -122 32 -149 -250
    -263 -108 -44 -221 -95 -233 -105 -1 -1 48 -83 109 -181 61 -98 114 -184 116
    -190 5 -13 -61 -39 -75 -30 -5 3 -56 82 -113 175 -57 94 -108 170 -113 171
    -14 0 -99 -67 -224 -177 -124 -110 -213 -163 -272 -163 -31 0 -44 7 -74 40
    -50 56 -113 186 -136 283 -79 327 60 653 333 784 54 26 85 36 172 57 40 10
    221 -2 280 -18z m323 -1352 c-11 -11 -23 -14 -35 -9 -17 7 -17 8 2 15 11 5 27
    9 35 9 12 1 11 -2 -2 -15z"/>
    <path d="M2135 2396 c-5 -3 -22 -7 -38 -10 -36 -8 -107 -73 -124 -113 -15 -38
    -17 -121 -3 -157 19 -50 80 -105 133 -121 116 -34 227 29 258 148 24 86 -21
    186 -101 227 -37 19 -105 33 -125 26z"/>
    <path d="M529 2573 c-53 -137 -59 -157 -49 -167 7 -7 14 -6 24 4 17 19 67 170
    60 181 -10 17 -25 9 -35 -18z"/>
    <path d="M870 2591 c0 -5 14 -48 31 -95 24 -67 35 -86 50 -86 25 0 24 11 -15
    105 -20 50 -38 81 -49 83 -9 2 -17 -1 -17 -7z"/>
  </g>
</svg>
