<svg viewBox="0 0 352 373" fill="currentColor" xmlns="http://www.w3.org/2000/svg">
  <path
    d="M66.4 1.3C66.1 2.1 66 6.7 66.2 11.6C66.4 18.7 66.8 20.5 68 20.5C69.2 20.5 69.6 18.6 69.8 10.2C70 1.5 69.8 -3.05474e-07 68.5 -3.05474e-07C67.6 -3.05474e-07 66.7 0.6 66.4 1.3Z"
    fill="black" />
  <path
    d="M104.1 22.5C98.5 29.2 97.3 32 100 32C101.4 32 113.1 17.9 112.7 16.7C111.9 14.1 109.9 15.4 104.1 22.5Z"
    fill="black" />
  <path
    d="M22.5 17C22.2 17.6 22.7 19 23.7 20.3C29.8 28 34.5 33 35.5 33C38.7 33 37.4 29.7 31.7 23.1C25.8 16.2 23.8 14.9 22.5 17Z"
    fill="black" />
  <path
    d="M59.9 36.3C46.3 40.2 37.1 51.1 35.4 65.2C34.9 69.5 35.3 72.5 36.9 78.1C38.8 84.2 40 86.2 44.8 91C52.5 98.7 59.5 101.4 70 100.8C81.8 100.1 92.2 93.3 97.8 82.5C100.1 78.1 100.5 76.3 100.5 68C100.5 57 98.4 51.4 91.7 44.7C84 37 70.3 33.4 59.9 36.3ZM76.7 40.5C82.8 42.3 91.1 49.3 94.3 55.4C97.5 61.5 97.4 74.7 94.2 81C91 87 86.9 91.2 81.2 94.1C77.3 96.1 75 96.5 68 96.5C57.9 96.5 53.7 94.7 47.1 87.5C39.9 79.6 37.5 70.5 40.4 60.8C43.2 50.9 49.7 44.2 59.5 40.8C65.7 38.6 70.2 38.6 76.7 40.5Z"
    fill="black" />
  <path
    d="M122 56.4C117.2 57.2 115.4 58 115.2 59.3C114.8 61.4 118.4 61.5 128.3 59.6C135.5 58.2 136.6 57.7 135.5 56.1C134.7 54.8 130.7 54.9 122 56.4Z"
    fill="black" />
  <path
    d="M0.500011 57C0.200011 57.5 0.100011 58.4 0.400011 58.9C1.10001 59.9 19.8 62.5 20.7 61.7C22.5 59.8 19.5 58.2 11.8 57.2C1.70001 55.7 1.30001 55.7 0.500011 57Z"
    fill="black" />
  <path
    d="M110 92.7C110 93.9 112.7 95.9 117.9 98.7C126.6 103.5 128 103.8 128 101.2C128 100.1 125.3 98.1 120.1 95.2C111.4 90.5 110 90.2 110 92.7Z"
    fill="black" />
  <path
    d="M16.8 96.6C9.79999 100.7 6.89999 104 10.3 104C12.1 104 27.3 94.7 27.8 93.2C28.5 90.8 24.4 92.1 16.8 96.6Z"
    fill="black" />
  <path
    d="M190.5 94.6C184.3 95.9 178.9 97.6 174.3 99.6C169.9 101.5 168.9 101.6 167.9 100.4C165.4 97.4 160.6 100.4 161.5 104.3C161.9 106 161.2 107.1 158.5 109C149.1 115.6 138.3 132.5 134.3 147C131.6 157.1 131.8 179.9 134.8 190.5C138.4 202.8 144.6 214.6 151 221.1C154 224.2 157.1 226.9 157.8 227.1C158.7 227.4 159.7 243.1 161.8 294.6C164.9 368.4 164.5 365.3 171.3 370.4C174.1 372.5 175.1 372.5 221.3 372.7C255.8 372.9 268 372.7 266.6 371.9C264.2 370.4 261.4 363.8 254.5 343C249.6 328.2 235.2 295 233.6 295C233.4 295 230.4 300.1 226.9 306.3C223.5 312.4 218.3 321.1 215.4 325.5C207.5 337.5 182.5 367.6 179.8 368.3C176.1 369.3 172.5 366.9 172.2 363.3C171.8 359.4 171.9 359.2 184.7 339.6C196.5 321.6 199.7 315.5 209.9 291.9L217 275.3L215.6 269.9C214.9 266.9 213.7 261.2 213 257.2L211.8 250H207.1C203.6 250 201.8 249.5 200.5 248C198.7 246 198.7 245.2 200.4 222.2L202.1 198.5L206.2 194.7C208.4 192.7 210.6 191 211 191C211.4 191 216.3 198.4 221.9 207.5C227.6 216.6 232.7 224 233.3 224C234 224 236.7 223.3 239.4 222.5C249.6 219.4 256 221.2 256 227.1C256 231 253.5 233.6 247.5 236C242 238.2 242 238.3 242.6 241.9C246.2 262.8 248.8 272.9 256.1 294C265 320 275.2 357.8 275.3 365.4C275.4 369.1 274.9 370.6 273.5 371.6C271.9 372.8 276.5 373 306 373H340.3L344.5 370.5C349 367.9 352 363.1 352 358.6C352 357.2 334.7 312.7 313.5 259.7L275 163.5L277 159.5C280.9 151.8 279 143.4 270.4 130.4C258.9 112.9 239.5 100 218 95.5C211.5 94.1 195.4 93.6 190.5 94.6ZM220.5 104.4C239.8 109.7 260.9 126.4 268.5 142.7C274.3 154.9 271.7 157.6 243.5 169C232.7 173.4 221.4 178.5 220.2 179.5C220.1 179.6 225 187.8 231.1 197.6C237.2 207.4 242.5 216 242.7 216.6C243.2 217.9 236.6 220.5 235.2 219.6C234.7 219.3 229.6 211.4 223.9 202.1C218.2 192.7 213.1 185.1 212.6 185C211.2 185 202.7 191.7 190.2 202.7C177.8 213.7 168.9 219 163 219C159.9 219 158.6 218.3 155.6 215C150.6 209.4 144.3 196.4 142 186.7C134.1 154 148 121.4 175.3 108.3C180.7 105.7 183.8 104.7 192.5 102.6C196.5 101.6 214.6 102.8 220.5 104.4ZM252.8 239.6C251.7 240.7 250.5 241 249.3 240.5C247.6 239.8 247.6 239.7 249.5 239C250.6 238.5 252.2 238.1 253 238.1C254.2 238 254.1 238.3 252.8 239.6Z"
    fill="black" />
  <path
    d="M210.5 133.4C210 133.7 208.3 134.1 206.7 134.4C203.1 135.2 196 141.7 194.3 145.7C192.8 149.5 192.6 157.8 194 161.4C195.9 166.4 202 171.9 207.3 173.5C218.9 176.9 230 170.6 233.1 158.7C235.5 150.1 231 140.1 223 136C219.3 134.1 212.5 132.7 210.5 133.4Z"
    fill="black" />
  <path
    d="M49.9 115.7C44.6 129.4 44 131.4 45 132.4C45.7 133.1 46.4 133 47.4 132C49.1 130.1 54.1 115 53.4 113.9C52.4 112.2 50.9 113 49.9 115.7Z"
    fill="black" />
  <path
    d="M84 113.9C84 114.4 85.4 118.7 87.1 123.4C89.5 130.1 90.6 132 92.1 132C94.6 132 94.5 130.9 90.6 121.5C88.6 116.5 86.8 113.4 85.7 113.2C84.8 113 84 113.3 84 113.9Z"
    fill="black" />
</svg>
