<svg version="1.0" xmlns="http://www.w3.org/2000/svg"
viewBox="0 0 2000.000000 373.000000" preserveAspectRatio="xMidYMid meet">
  <g transform="translate(0.000000,373.000000) scale(0.100000,-0.100000)" fill="#000000" stroke="none">
    <path d="M694 3717 c-3 -8 -4 -54 -2 -103 2 -71 6 -89 18 -89 12 0 16 19 18
    103 2 87 0 102 -13 102 -9 0 -18 -6 -21 -13z"/>
    <!-- <path d="M4046 3708 c-37 -58 -37 -61 -34 -1863 3 -1737 3 -1761 23 -1800 17
    -35 24 -40 54 -40 43 0 67 31 81 104 14 74 14 3438 0 3512 -13 69 -38 103 -78
    107 -23 2 -34 -2 -46 -20z"/> -->
    <!-- <path d="M10678 3635 c-347 -66 -634 -322 -741 -661 -163 -517 141 -1070 667
    -1214 149 -41 352 -41 502 0 129 34 343 150 360 194 4 10 -157 291 -179 313
    -3 2 -33 -18 -68 -44 -68 -51 -142 -87 -224 -109 -67 -18 -217 -18 -289 1
    -191 50 -356 208 -422 405 -29 85 -26 253 5 348 64 195 235 350 437 398 170
    40 381 -12 506 -125 27 -24 50 -42 52 -40 38 52 186 314 183 324 -17 42 -244
    162 -372 196 -106 27 -310 34 -417 14z"/> -->
    <!-- <path d="M5130 3620 c-227 -27 -417 -192 -475 -411 -22 -80 -19 -223 5 -300
    52 -171 184 -308 356 -371 53 -20 85 -22 335 -27 l276 -6 40 -27 c105 -69 109
    -227 7 -304 l-37 -29 -449 -3 -448 -3 0 -184 0 -185 458 0 c508 0 505 0 634
    67 83 43 185 148 228 233 108 215 69 470 -98 639 -81 82 -155 125 -258 151
    -66 17 -111 20 -313 20 -267 0 -294 6 -346 75 -30 38 -44 117 -31 169 7 29 58
    91 90 109 15 9 147 13 481 17 l460 5 0 185 0 185 -425 1 c-234 1 -454 -2 -490
    -6z"/> -->
    <!-- <path d="M6350 3023 c0 -680 1 -688 69 -828 76 -158 180 -266 333 -345 201
    -105 458 -109 661 -10 197 97 343 275 398 487 18 71 19 115 19 690 l0 613
    -182 -2 -183 -3 -5 -610 -5 -610 -28 -53 c-40 -76 -97 -134 -169 -173 -60 -33
    -68 -34 -168 -34 -96 0 -110 2 -160 29 -74 38 -135 98 -173 171 l-32 60 -5
    610 -5 610 -182 3 -183 2 0 -607z"/>
    <path d="M8160 2700 l0 -930 185 0 185 0 2 607 3 607 355 -607 355 -607 203 0
    202 0 -2 928 -3 927 -182 3 -183 2 0 -610 c0 -335 -3 -610 -7 -610 -5 1 -156
    256 -338 567 -181 311 -342 586 -357 610 l-28 43 -195 0 -195 0 0 -930z"/>
    <path d="M11697 3624 c-4 -4 -7 -423 -7 -931 l0 -923 190 0 190 0 0 370 0 370
    370 0 370 0 0 -370 0 -370 185 0 185 0 0 930 0 930 -185 0 -185 0 0 -375 0
    -375 -370 0 -370 0 -2 373 -3 372 -181 3 c-99 1 -183 -1 -187 -4z"/>
    <path d="M14174 3619 c-249 -23 -472 -177 -585 -404 -79 -161 -79 -160 -79
    -842 l0 -603 185 0 185 0 0 185 0 185 370 0 370 0 0 -185 0 -185 185 0 185 0
    0 608 c0 577 -1 613 -20 687 -92 359 -421 588 -796 554z m239 -404 c68 -34
    149 -116 180 -182 20 -44 22 -66 25 -285 l3 -238 -371 0 -371 0 3 233 c3 227
    4 233 29 288 45 96 124 167 227 206 24 9 68 12 127 10 75 -3 100 -8 148 -32z"/>
    <path d="M15705 3620 c-273 -30 -494 -276 -495 -551 -1 -198 121 -399 297
    -492 111 -58 165 -67 433 -67 206 0 240 -3 275 -19 135 -61 150 -247 26 -323
    -36 -23 -40 -23 -481 -28 l-445 -5 -3 -182 -2 -183 458 0 c379 0 468 3 517 15
    232 61 415 296 415 535 0 199 -122 401 -298 494 -107 56 -172 66 -432 66 -124
    0 -241 5 -262 10 -43 12 -101 73 -118 125 -26 78 16 177 90 215 38 19 57 20
    490 20 l450 0 0 190 0 190 -422 -1 c-233 -1 -454 -5 -493 -9z"/>
    <path d="M16947 3623 c-4 -3 -7 -422 -7 -930 l0 -923 640 0 640 0 0 185 0 185
    -455 0 -455 0 2 183 3 182 308 3 307 2 0 185 0 185 -307 2 -308 3 -3 182 -2
    183 452 2 453 3 0 185 0 185 -631 3 c-347 1 -634 -1 -637 -5z"/>
    <path d="M18480 2700 l0 -930 185 0 185 0 0 185 0 185 211 -2 210 -3 78 -180
    78 -180 197 -3 c108 -1 196 -1 196 2 0 2 -45 111 -100 241 -55 131 -99 239
    -98 239 189 119 311 316 339 550 10 78 9 109 -5 190 -58 344 -322 593 -665
    626 -53 5 -257 10 -453 10 l-358 0 0 -930z m902 517 c111 -55 184 -151 208
    -275 31 -154 -57 -322 -208 -398 l-57 -29 -237 -3 -238 -3 0 371 0 371 238 -3
    c237 -3 237 -3 294 -31z"/> -->
    <path d="M1071 3505 c-56 -67 -68 -95 -41 -95 14 0 131 141 127 153 -8 26 -28
    13 -86 -58z"/>
    <path d="M255 3560 c-3 -6 2 -20 12 -33 61 -77 108 -127 118 -127 32 0 19 33
    -38 99 -59 69 -79 82 -92 61z"/>
    <path d="M629 3367 c-136 -39 -228 -148 -245 -289 -5 -43 -1 -73 15 -129 19
    -61 31 -81 79 -129 77 -77 147 -104 252 -98 118 7 222 75 278 183 23 44 27 62
    27 145 0 110 -21 166 -88 233 -77 77 -214 113 -318 84z m168 -42 c61 -18 144
    -88 176 -149 32 -61 31 -193 -1 -256 -32 -60 -73 -102 -130 -131 -39 -20 -62
    -24 -132 -24 -101 0 -143 18 -209 90 -72 79 -96 170 -67 267 28 99 93 166 191
    200 62 22 107 22 172 3z"/>
    <path d="M1250 3166 c-48 -8 -66 -16 -68 -29 -4 -21 32 -22 131 -3 72 14 83
    19 72 35 -8 13 -48 12 -135 -3z"/>
    <path d="M35 3160 c-3 -5 -4 -14 -1 -19 7 -10 194 -36 203 -28 18 19 -12 35
    -89 45 -101 15 -105 15 -113 2z"/>
    <path d="M1130 2803 c0 -12 27 -32 79 -60 87 -48 101 -51 101 -25 0 11 -27 31
    -79 60 -87 47 -101 50 -101 25z"/>
    <path d="M198 2764 c-70 -41 -99 -74 -65 -74 18 0 170 93 175 108 7 24 -34 11
    -110 -34z"/>
    <path d="M1935 2784 c-62 -13 -116 -30 -162 -50 -44 -19 -54 -20 -64 -8 -25
    30 -73 0 -64 -39 4 -17 -3 -28 -30 -47 -94 -66 -202 -235 -242 -380 -27 -101
    -25 -329 5 -435 36 -123 98 -241 162 -306 30 -31 61 -58 68 -60 9 -3 19 -160
    40 -675 31 -738 27 -707 95 -758 28 -21 38 -21 500 -23 345 -2 467 0 453 8
    -24 15 -52 81 -121 289 -49 148 -193 480 -209 480 -2 0 -32 -51 -67 -113 -34
    -61 -86 -148 -115 -192 -79 -120 -329 -421 -356 -428 -37 -10 -73 14 -76 50
    -4 39 -3 41 125 237 118 180 150 241 252 477 l71 166 -14 54 c-7 30 -19 87
    -26 127 l-12 72 -47 0 c-35 0 -53 5 -66 20 -18 20 -18 28 -1 258 l17 237 41
    38 c22 20 44 37 48 37 4 0 53 -74 109 -165 57 -91 108 -165 114 -165 7 0 34 7
    61 15 102 31 166 13 166 -46 0 -39 -25 -65 -85 -89 -55 -22 -55 -23 -49 -59
    36 -209 62 -310 135 -521 89 -260 191 -638 192 -714 1 -37 -4 -52 -18 -62 -16
    -12 30 -14 325 -14 l343 0 42 25 c45 26 75 74 75 119 0 14 -173 459 -385 989
    l-385 962 20 40 c39 77 20 161 -66 291 -115 175 -309 304 -524 349 -65 14
    -226 19 -275 9z m300 -98 c193 -53 404 -220 480 -383 58 -122 32 -149 -250
    -263 -108 -44 -221 -95 -233 -105 -1 -1 48 -83 109 -181 61 -98 114 -184 116
    -190 5 -13 -61 -39 -75 -30 -5 3 -56 82 -113 175 -57 94 -108 170 -113 171
    -14 0 -99 -67 -224 -177 -124 -110 -213 -163 -272 -163 -31 0 -44 7 -74 40
    -50 56 -113 186 -136 283 -79 327 60 653 333 784 54 26 85 36 172 57 40 10
    221 -2 280 -18z m323 -1352 c-11 -11 -23 -14 -35 -9 -17 7 -17 8 2 15 11 5 27
    9 35 9 12 1 11 -2 -2 -15z"/>
    <path d="M2135 2396 c-5 -3 -22 -7 -38 -10 -36 -8 -107 -73 -124 -113 -15 -38
    -17 -121 -3 -157 19 -50 80 -105 133 -121 116 -34 227 29 258 148 24 86 -21
    186 -101 227 -37 19 -105 33 -125 26z"/>
    <path d="M529 2573 c-53 -137 -59 -157 -49 -167 7 -7 14 -6 24 4 17 19 67 170
    60 181 -10 17 -25 9 -35 -18z"/>
    <path d="M870 2591 c0 -5 14 -48 31 -95 24 -67 35 -86 50 -86 25 0 24 11 -15
    105 -20 50 -38 81 -49 83 -9 2 -17 -1 -17 -7z"/>
    <!-- <path d="M5510 755 l0 -435 25 0 25 0 0 435 0 435 -25 0 -25 0 0 -435z"/>
    <path d="M10270 755 l0 -435 25 0 25 0 0 217 0 216 53 52 c77 78 179 97 246
    47 48 -35 51 -51 51 -299 l0 -233 25 0 25 0 0 240 c0 223 -1 244 -21 281 -26
    52 -81 79 -164 79 -75 0 -128 -24 -177 -78 l-38 -42 0 195 0 195 -25 0 -25 0
    0 -435z"/> -->
    <!-- <path d="M4982 1139 c-6 -13 -84 -201 -176 -418 -91 -216 -166 -395 -166 -398
    0 -2 12 -3 26 -1 23 3 32 18 83 138 l57 135 190 3 189 2 59 -140 c56 -135 60
    -140 88 -140 16 0 27 3 24 8 -2 4 -82 189 -176 412 -95 223 -176 409 -181 414
    -5 5 -12 -1 -17 -15z m99 -287 c44 -106 79 -198 79 -203 0 -5 -70 -9 -165 -9
    -91 0 -165 3 -165 7 0 4 31 81 69 172 38 91 75 186 82 210 7 24 15 38 17 30 2
    -8 40 -101 83 -207z"/>
    <path d="M8644 1076 c-3 -8 -4 -25 -2 -38 2 -18 9 -23 32 -23 36 0 56 27 40
    53 -14 22 -62 28 -70 8z"/>
    <path d="M9872 738 c3 -302 4 -325 23 -357 35 -59 67 -76 145 -76 71 0 95 10
    85 37 -5 13 -18 15 -68 11 -53 -4 -66 -2 -89 16 -41 33 -48 77 -48 293 l0 197
    98 3 c92 3 97 4 100 26 3 22 1 22 -97 22 l-101 0 0 75 c0 74 0 75 -26 75 l-26
    0 4 -322z"/> -->
    <!-- <path d="M5693 912 c-9 -13 -6 -22 13 -42 15 -17 51 -110 108 -285 83 -256 85
    -260 113 -263 l29 -3 86 263 c48 145 89 256 92 248 2 -8 41 -126 86 -262 l81
    -248 30 0 c16 0 29 3 29 8 0 4 43 137 94 295 94 288 94 288 69 285 -24 -3 -30
    -18 -105 -248 -44 -135 -83 -248 -87 -253 -4 -4 -45 108 -90 248 -83 253 -84
    255 -112 255 -28 0 -29 -2 -111 -255 -46 -140 -85 -255 -88 -255 -3 0 -38 100
    -79 223 -40 122 -82 237 -93 255 -26 43 -51 56 -65 34z"/>
    <path d="M6787 920 c-44 -11 -113 -45 -122 -60 -4 -6 -2 -17 4 -24 9 -10 21
    -8 62 12 61 30 150 40 204 22 46 -15 74 -71 75 -147 l0 -53 -113 0 c-135 0
    -193 -16 -236 -66 -17 -18 -33 -50 -37 -69 -10 -53 1 -123 23 -154 69 -94 284
    -95 340 0 10 16 20 29 23 29 3 0 11 -15 18 -34 7 -18 21 -41 31 -50 16 -14 20
    -15 30 -2 10 12 9 21 -6 48 -15 28 -19 66 -23 238 -6 229 -13 255 -78 293 -38
    22 -138 31 -195 17z m221 -375 c-5 -94 -18 -122 -78 -162 -65 -45 -168 -42
    -222 6 -27 24 -32 36 -35 87 -8 117 47 152 236 153 l104 1 -5 -85z"/>
    <path d="M7860 908 c-57 -29 -83 -75 -77 -136 7 -63 40 -92 178 -152 135 -59
    159 -81 159 -145 0 -126 -179 -168 -312 -74 -26 19 -31 20 -45 7 -13 -14 -11
    -18 19 -41 85 -65 206 -80 293 -36 72 35 90 66 90 149 0 54 -4 73 -20 90 -11
    13 -79 52 -152 87 -162 78 -184 103 -148 172 15 30 76 61 118 61 13 0 45 -7
    71 -16 41 -14 50 -14 57 -3 14 23 11 26 -38 43 -67 23 -140 21 -193 -6z"/> -->
    <!-- <path d="M11920 907 c-94 -50 -106 -166 -23 -225 16 -10 73 -39 128 -63 125
    -54 155 -81 155 -142 0 -127 -160 -169 -304 -79 -34 21 -40 22 -53 9 -13 -13
    -11 -18 19 -40 55 -43 107 -59 184 -60 111 0 187 52 203 139 18 99 -21 146
    -180 214 -109 47 -159 85 -159 120 0 39 28 77 70 94 50 20 76 20 131 1 47 -17
    69 -14 69 9 0 20 -83 46 -145 46 -35 0 -66 -8 -95 -23z"/>
    <path d="M7180 910 c0 -6 57 -146 126 -313 l126 -302 -29 -90 c-33 -106 -69
    -149 -133 -160 -31 -5 -40 -11 -38 -23 3 -13 14 -17 47 -15 55 3 112 39 135
    86 17 36 256 798 256 817 0 13 -37 13 -45 0 -3 -5 -42 -127 -86 -272 -44 -144
    -82 -264 -84 -267 -3 -2 -12 13 -21 35 -8 21 -59 145 -112 274 -83 200 -101
    235 -120 238 -12 2 -22 -2 -22 -8z"/> -->
    <!-- <path d="M8650 620 l0 -300 25 0 25 0 0 300 0 300 -25 0 -25 0 0 -300z"/>
    <path d="M9074 901 c-22 -10 -57 -38 -77 -61 -32 -37 -37 -41 -43 -24 -26 82
    -45 104 -68 85 -12 -11 -12 -18 5 -54 17 -38 19 -68 19 -284 l0 -243 25 0 25
    0 0 216 0 215 53 53 c97 97 224 101 284 9 16 -24 18 -58 21 -260 3 -217 5
    -233 21 -233 17 0 19 16 26 199 8 221 3 283 -26 330 -40 66 -176 93 -265 52z"/>
    <path d="M11051 906 c-53 -19 -107 -71 -138 -133 -24 -50 -28 -72 -31 -163 -4
    -103 -3 -106 30 -170 26 -50 44 -71 82 -95 47 -28 55 -30 150 -30 85 0 110 4
    154 24 37 17 52 29 50 40 -4 20 -28 18 -98 -8 -95 -35 -197 -25 -252 27 -32
    29 -63 101 -71 160 l-5 42 223 0 224 0 7 37 c10 52 -11 140 -44 188 -54 80
    -183 117 -281 81z m164 -45 c71 -32 122 -116 113 -189 l-3 -27 -197 -3 -198
    -2 0 27 c0 65 78 177 140 202 39 15 101 12 145 -8z"/>
    <path d="M12370 671 c0 -241 1 -249 23 -281 36 -54 68 -72 141 -77 89 -8 142
    13 201 79 31 35 45 45 45 32 0 -27 40 -104 54 -104 29 0 34 22 13 59 -21 34
    -22 51 -25 289 l-4 253 -21 -3 c-22 -3 -22 -6 -27 -225 l-5 -222 -40 -41 c-22
    -23 -53 -49 -70 -57 -41 -22 -132 -21 -172 0 -61 32 -66 56 -71 315 -4 219 -6
    232 -23 232 -18 0 -19 -12 -19 -249z"/>
    <path d="M13182 899 c-23 -11 -58 -39 -77 -61 l-34 -40 -10 39 c-14 50 -45 81
    -64 64 -12 -9 -11 -18 7 -54 19 -39 21 -61 24 -284 4 -231 5 -243 23 -243 18
    0 19 10 19 211 l0 211 31 39 c85 108 246 129 306 40 16 -23 18 -57 21 -263 l3
    -238 25 0 24 0 0 233 c0 222 -1 235 -22 277 -34 66 -63 83 -155 87 -65 4 -85
    1 -121 -18z"/> -->
  </g>
</svg>
